<svg width="200" height="85" viewBox="0 0 200 85" fill="none" xmlns="http://www.w3.org/2000/svg">
<g clip-path="url(#clip0_433_3596)">
<path d="M72.5558 48.7264C71.206 45.8428 69.0293 43.42 66.2991 41.7624C63.3857 39.8987 59.5138 38.2887 54.6834 36.9325C49.8531 35.5762 43.929 33.9149 36.9113 31.9484C32.6278 30.7402 29.3605 29.4851 27.1093 28.1833C24.8582 26.8814 23.7281 25.1294 23.719 22.9274C23.719 20.4173 24.8445 18.6442 27.0957 17.6081C29.3468 16.572 32.6688 16.0525 37.0617 16.0495C41.6734 16.0495 45.1047 16.8952 47.3559 18.5868C49.0814 19.8887 50.3073 21.7841 51.0333 24.2731C51.2364 24.9707 51.6615 25.584 52.2448 26.0211C52.8282 26.4582 53.5383 26.6954 54.2688 26.6971H68.3543C68.8434 26.6979 69.3268 26.5925 69.7708 26.3885C70.2148 26.1844 70.6086 25.8865 70.9249 25.5155C71.2412 25.1445 71.4723 24.7094 71.6021 24.2405C71.7318 23.7716 71.7572 23.2802 71.6763 22.8005C70.5614 16.3394 67.7497 11.1425 63.2414 7.20964C57.8642 2.51561 49.3579 0.167083 37.7225 0.164062C31.3427 0.164062 25.961 0.79386 21.5772 2.05345C17.1934 3.31305 13.6253 4.98194 10.8729 7.06012C8.29536 8.93309 6.22798 11.4153 4.85775 14.2824C3.59797 17.0107 2.95256 19.9797 2.96662 22.9818C2.96662 24.0511 3.01218 25.0886 3.10332 26.0945C3.49498 26.0475 3.88907 26.0233 4.28357 26.022H17.1251C19.7308 26.0244 22.2291 27.055 24.0712 28.8874C25.9133 30.7199 26.9486 33.2043 26.9498 35.7952V47.0862C26.9498 47.4261 26.9498 47.7613 26.8997 48.0921C30.7002 49.2792 35.1311 50.4331 40.1923 51.5537C44.5792 52.5384 47.845 53.6878 49.9898 55.0017C52.1346 56.3157 53.1979 58.4498 53.1796 61.4039C53.1796 64.0288 51.7245 65.9711 48.8141 67.2307C45.9037 68.4903 42.4101 69.1201 38.3331 69.1201C33.4997 69.1201 29.5746 68.0629 26.5579 65.9484C24.391 64.5124 22.8711 62.2943 22.32 59.7637C22.135 58.9701 21.6844 58.2625 21.0418 57.7571C20.3993 57.2516 19.6031 56.9782 18.7838 56.9818H3.99193C3.46533 56.9836 2.94539 57.0989 2.46789 57.3197C1.99038 57.5404 1.56665 57.8614 1.22583 58.2606C0.885023 58.6597 0.635226 59.1275 0.493632 59.6318C0.352038 60.1361 0.322008 60.665 0.405609 61.1819C0.839391 63.7442 1.67595 66.2228 2.88459 68.5265C4.74877 72.0275 7.39971 75.054 10.6314 77.3709C14.2876 79.9716 18.3909 81.8864 22.7392 83.0209C27.8959 84.387 33.2156 85.0486 38.5518 84.9874C50.3999 84.9874 59.3498 82.6116 65.4014 77.8602C71.453 73.1088 74.4728 67.131 74.4606 59.9269C74.4545 55.2479 73.8196 51.5145 72.5558 48.7264Z" fill="white"/>
<path d="M80.2021 17.671V6.51134C80.2051 5.95441 80.3184 5.40352 80.5355 4.89012C80.7526 4.37672 81.0693 3.91087 81.4675 3.51916C81.8657 3.12746 82.3376 2.81757 82.8562 2.60719C83.3749 2.39682 83.9301 2.29007 84.4902 2.29306H97.3272C97.8877 2.28948 98.4434 2.39578 98.9626 2.60589C99.4817 2.81599 99.9542 3.12579 100.353 3.51755C100.752 3.90932 101.069 4.37537 101.286 4.88907C101.503 5.40276 101.617 5.95403 101.62 6.51134V17.671C101.617 18.2279 101.504 18.7788 101.286 19.2922C101.069 19.8056 100.753 20.2715 100.354 20.6632C99.9563 21.0549 99.4844 21.3648 98.9657 21.5751C98.4471 21.7855 97.8919 21.8923 97.3317 21.8893H84.5039C83.9426 21.8941 83.3859 21.7886 82.8657 21.5791C82.3455 21.3695 81.872 21.0599 81.4724 20.668C81.0727 20.2761 80.7548 19.8097 80.5368 19.2954C80.3189 18.7811 80.2051 18.2291 80.2021 17.671Z" fill="white"/>
<path d="M17.125 31.5273H4.28809C1.91984 31.5273 0 33.4362 0 35.7909V47.082C0 49.4367 1.91984 51.3456 4.28809 51.3456H17.125C19.4933 51.3456 21.4131 49.4367 21.4131 47.082V35.7909C21.4131 33.4362 19.4933 31.5273 17.125 31.5273Z" fill="white"/>
<path d="M98.3069 30.8242H83.5378C81.7031 30.8242 80.2158 32.303 80.2158 34.1273V79.5678C80.2158 81.392 81.7031 82.8709 83.5378 82.8709H98.3069C100.142 82.8709 101.629 81.392 101.629 79.5678V34.1273C101.629 32.303 100.142 30.8242 98.3069 30.8242Z" fill="white"/>
<path d="M157.629 0.000624666H154.831C152.685 -0.00297337 150.54 0.107436 148.406 0.331382C146.282 0.559746 144.201 1.08761 142.227 1.89908C140.089 2.78869 138.093 3.98387 136.303 5.44679C134.126 7.28067 132.262 9.45351 130.784 11.8807V5.89082C130.784 4.94029 130.405 4.0287 129.729 3.35658C129.053 2.68446 128.136 2.30686 127.18 2.30686H114.293C113.336 2.30686 112.419 2.68431 111.742 3.3563C111.066 4.02829 110.685 4.93988 110.684 5.89082V79.2917C110.685 80.2426 111.066 81.1542 111.742 81.8262C112.419 82.4982 113.336 82.8756 114.293 82.8756H128.506C128.979 82.8756 129.448 82.7829 129.885 82.6028C130.323 82.4227 130.72 82.1587 131.055 81.8259C131.389 81.4931 131.655 81.098 131.836 80.6632C132.017 80.2284 132.11 79.7623 132.11 79.2917V40.942C132.11 27.9518 138.645 21.2914 151.705 21.2914H174.034C179.715 21.2914 185.162 19.0478 189.179 15.0541C193.195 11.0605 195.452 5.64396 195.452 -0.00390625H157.629V0.000624666Z" fill="white"/>
<path d="M185.923 32.8672H156.759C153.031 32.8672 149.457 34.3394 146.821 36.9599C144.186 39.5804 142.705 43.1346 142.705 46.8405V70.8544C142.711 74.5564 144.194 78.1048 146.829 80.7204C149.464 83.336 153.035 84.8051 156.759 84.8051H185.923C189.651 84.8051 193.226 83.333 195.862 80.7127C198.499 78.0923 199.98 74.5381 199.981 70.8317V46.8179C199.974 43.1154 198.49 39.5671 195.854 36.9516C193.219 34.3361 189.647 32.8672 185.923 32.8672ZM182.041 64.425C182.038 64.982 181.924 65.5328 181.707 66.0462C181.49 66.5596 181.173 67.0255 180.775 67.4172C180.377 67.8089 179.905 68.1188 179.387 68.3292C178.868 68.5395 178.313 68.6463 177.753 68.6433H164.934C164.374 68.6463 163.819 68.5395 163.3 68.3292C162.781 68.1188 162.309 67.8089 161.911 67.4172C161.513 67.0255 161.196 66.5596 160.979 66.0462C160.762 65.5328 160.649 64.982 160.646 64.425V53.2472C160.649 52.6903 160.762 52.1394 160.979 51.626C161.196 51.1126 161.513 50.6468 161.911 50.2551C162.309 49.8634 162.781 49.5535 163.3 49.3431C163.819 49.1327 164.374 49.026 164.934 49.029H177.771C178.331 49.026 178.886 49.1327 179.405 49.3431C179.923 49.5535 180.395 49.8634 180.794 50.2551C181.192 50.6468 181.508 51.1126 181.726 51.626C181.943 52.1394 182.056 52.6903 182.059 53.2472L182.041 64.425Z" fill="white"/>
</g>
<defs>
<clipPath id="clip0_433_3596">
<rect width="200" height="85" fill="white"/>
</clipPath>
</defs>
</svg>
