<svg width="80" height="34" viewBox="0 0 80 34" fill="none" xmlns="http://www.w3.org/2000/svg">
<g clip-path="url(#clip0_402_3631)">
<path d="M29.0222 19.4894C28.4823 18.3359 27.6116 17.3668 26.5196 16.7038C25.3542 15.9583 23.8055 15.3143 21.8733 14.7718C19.9412 14.2293 17.5715 13.5648 14.7645 12.7782C13.051 12.2949 11.7441 11.7929 10.8437 11.2721C9.94321 10.7514 9.49116 10.0506 9.48751 9.16978C9.48751 8.16573 9.93774 7.45649 10.8382 7.04207C11.7386 6.62764 13.0675 6.41982 14.8246 6.41861C16.6693 6.41861 18.0418 6.75692 18.9423 7.43354C19.6325 7.95429 20.1228 8.71246 20.4133 9.70806C20.4945 9.98711 20.6645 10.2324 20.8979 10.4073C21.1312 10.5821 21.4153 10.677 21.7074 10.6777H27.3416C27.5373 10.678 27.7307 10.6358 27.9082 10.5542C28.0858 10.4726 28.2434 10.3534 28.3699 10.205C28.4964 10.0566 28.5888 9.88258 28.6407 9.69502C28.6927 9.50746 28.7028 9.31089 28.6705 9.11904C28.2245 6.5346 27.0998 4.45582 25.2965 2.88268C23.1456 1.00507 19.7431 0.0656614 15.0889 0.0644531C12.537 0.0644531 10.3843 0.316372 8.63081 0.82021C6.87729 1.32405 5.45006 1.9916 4.3491 2.82288C3.31807 3.57206 2.49112 4.56496 1.94303 5.71179C1.43912 6.80312 1.18095 7.9907 1.18657 9.19153C1.18657 9.61925 1.2048 10.0343 1.24126 10.4366C1.39792 10.4178 1.55556 10.4081 1.71336 10.4076H6.84995C7.89225 10.4086 8.89155 10.8208 9.6284 11.5538C10.3652 12.2868 10.7794 13.2806 10.7799 14.3169V18.8333C10.7799 18.9693 10.7799 19.1034 10.7598 19.2357C12.28 19.7105 14.0524 20.1721 16.0769 20.6203C17.8316 21.0142 19.1379 21.4739 19.9958 21.9995C20.8538 22.5251 21.2791 23.3787 21.2718 24.5604C21.2718 25.6104 20.6897 26.3873 19.5256 26.8911C18.3614 27.3949 16.964 27.6469 15.3332 27.6469C13.3998 27.6469 11.8298 27.224 10.6231 26.3782C9.75634 25.8038 9.14839 24.9166 8.92792 23.9043C8.85395 23.5869 8.67367 23.3038 8.41666 23.1017C8.15965 22.8995 7.84117 22.7901 7.51344 22.7915H1.5967C1.38606 22.7923 1.17808 22.8384 0.987083 22.9267C0.79608 23.015 0.626586 23.1434 0.490261 23.3031C0.353936 23.4627 0.254017 23.6498 0.197379 23.8516C0.140742 24.0533 0.12873 24.2648 0.16217 24.4716C0.335683 25.4965 0.670305 26.4879 1.15376 27.4094C1.89944 28.8098 2.95981 30.0204 4.25249 30.9472C5.71498 31.9875 7.35629 32.7534 9.09562 33.2072C11.1583 33.7536 13.2862 34.0183 15.4207 33.9938C20.1599 33.9938 23.7398 33.0435 26.1605 31.1429C28.5811 29.2423 29.789 26.8512 29.7842 23.9696C29.7817 22.098 29.5278 20.6046 29.0222 19.4894Z" fill="#2F6EF6"/>
<path opacity="0.7" d="M32.0809 7.06722V2.60336C32.0821 2.38059 32.1274 2.16024 32.2143 1.95488C32.3011 1.74952 32.4278 1.56317 32.5871 1.40649C32.7464 1.24981 32.9351 1.12586 33.1426 1.04171C33.35 0.957555 33.5721 0.914857 33.7962 0.916051H38.9309C39.1551 0.914618 39.3774 0.957139 39.5851 1.04118C39.7928 1.12523 39.9817 1.24914 40.1412 1.40585C40.3007 1.56255 40.4275 1.74898 40.5145 1.95445C40.6014 2.15993 40.6468 2.38044 40.648 2.60336V7.06722C40.6468 7.29 40.6015 7.51035 40.5146 7.71571C40.4278 7.92107 40.3011 8.10741 40.1419 8.26409C39.9826 8.42078 39.7938 8.54473 39.5864 8.62888C39.3789 8.71303 39.1568 8.75573 38.9328 8.75454H33.8016C33.5771 8.75645 33.3544 8.71428 33.1464 8.63045C32.9383 8.54662 32.7489 8.42278 32.589 8.26603C32.4292 8.10928 32.302 7.92269 32.2148 7.71698C32.1276 7.51126 32.0821 7.29046 32.0809 7.06722Z" fill="#E4241A"/>
<path opacity="0.7" d="M6.85001 12.6094H1.71524C0.767937 12.6094 0 13.3729 0 14.3148V18.8312C0 19.7731 0.767937 20.5367 1.71524 20.5367H6.85001C7.79731 20.5367 8.56524 19.7731 8.56524 18.8312V14.3148C8.56524 13.3729 7.79731 12.6094 6.85001 12.6094Z" fill="#E4241A"/>
<path d="M39.3229 12.3301H33.4152C32.6814 12.3301 32.0864 12.9216 32.0864 13.6513V31.8275C32.0864 32.5572 32.6814 33.1487 33.4152 33.1487H39.3229C40.0567 33.1487 40.6517 32.5572 40.6517 31.8275V13.6513C40.6517 12.9216 40.0567 12.3301 39.3229 12.3301Z" fill="#2F6EF6"/>
<path d="M63.0518 -0.000140758H61.9327C61.0742 -0.00157997 60.2163 0.0425839 59.3625 0.132162C58.5129 0.223508 57.6806 0.434652 56.8908 0.759241C56.0357 1.11509 55.2374 1.59316 54.5212 2.17832C53.6503 2.91188 52.9049 3.78101 52.3138 4.75188V2.35594C52.3138 1.97573 52.1619 1.61109 51.8915 1.34224C51.6212 1.07339 51.2544 0.922354 50.872 0.922354H45.7172C45.3346 0.922354 44.9677 1.07333 44.697 1.34213C44.4264 1.61093 44.274 1.97556 44.2736 2.35594V31.7163C44.274 32.0966 44.4264 32.4613 44.697 32.7301C44.9677 32.9989 45.3346 33.1499 45.7172 33.1499H51.4025C51.5918 33.1499 51.7793 33.1128 51.9542 33.0407C52.1291 32.9687 52.2881 32.8631 52.422 32.73C52.5559 32.5968 52.6621 32.4388 52.7345 32.2649C52.807 32.091 52.8443 31.9045 52.8443 31.7163V16.3764C52.8443 11.1803 55.4581 8.51617 60.6822 8.51617H69.6138C71.886 8.51617 74.065 7.61873 75.6717 6.02127C77.2783 4.42381 78.1809 2.25719 78.1809 -0.00195312H63.0518V-0.000140758Z" fill="#2F6EF6"/>
<path d="M74.3694 13.1465H62.7036C61.2127 13.1465 59.7829 13.7354 58.7286 14.7836C57.6744 15.8318 57.0822 17.2534 57.0822 18.7358V28.3414C57.0846 29.8222 57.6779 31.2415 58.7319 32.2878C59.7858 33.334 61.2143 33.9216 62.7036 33.9216H74.3694C75.8605 33.9216 77.2905 33.3328 78.345 32.2847C79.3995 31.2365 79.9922 29.8149 79.9927 28.3323V18.7268C79.9898 17.2458 79.3961 15.8264 78.3418 14.7802C77.2875 13.7341 75.8589 13.1465 74.3694 13.1465ZM72.8164 25.7696C72.8152 25.9924 72.7699 26.2127 72.683 26.4181C72.5962 26.6235 72.4695 26.8098 72.3102 26.9665C72.151 27.1232 71.9622 27.2471 71.7548 27.3313C71.5473 27.4154 71.3252 27.4581 71.1012 27.4569H65.9737C65.7496 27.4581 65.5275 27.4154 65.3201 27.3313C65.1126 27.2471 64.9239 27.1232 64.7646 26.9665C64.6053 26.8098 64.4786 26.6235 64.3918 26.4181C64.3049 26.2127 64.2596 25.9924 64.2584 25.7696V21.2985C64.2596 21.0757 64.3049 20.8554 64.3918 20.65C64.4786 20.4447 64.6053 20.2583 64.7646 20.1016C64.9239 19.945 65.1126 19.821 65.3201 19.7369C65.5275 19.6527 65.7496 19.61 65.9737 19.6112H71.1084C71.3325 19.61 71.5546 19.6527 71.762 19.7369C71.9695 19.821 72.1583 19.945 72.3175 20.1016C72.4768 20.2583 72.6035 20.4447 72.6903 20.65C72.7772 20.8554 72.8225 21.0757 72.8237 21.2985L72.8164 25.7696Z" fill="#2F6EF6"/>
</g>
<defs>
<clipPath id="clip0_402_3631">
<rect width="80" height="34" fill="white"/>
</clipPath>
</defs>
</svg>
