<svg xmlns="http://www.w3.org/2000/svg" viewBox="0 0 438.89 187.6"><defs><style>.cls-1{fill:#2f6ef6;}.cls-2{fill:#e4241a;opacity:0.7;}</style></defs><g id="Layer_2" data-name="Layer 2"><g id="Layer_1-2" data-name="Layer 1"><path class="cls-1" d="M159.22,107.54a35.62,35.62,0,0,0-13.73-15.37Q135.9,86,120,81.51t-39-11q-14.1-4-21.51-8.31T52.05,50.6q0-8.31,7.41-11.74t21.87-3.44q15.18,0,22.59,5.6,5.68,4.31,8.07,12.55a7.41,7.41,0,0,0,7.1,5.35H150a7.38,7.38,0,0,0,7.29-8.6q-3.67-21.39-18.51-34.41Q121.08.37,82.78.36q-21,0-35.43,4.17T23.86,15.58a42.15,42.15,0,0,0-13.2,15.94,45.51,45.51,0,0,0-4.15,19.2q0,3.54.3,6.87a22.23,22.23,0,0,1,2.59-.16H37.58A21.58,21.58,0,0,1,59.14,79v24.92c0,.75,0,1.49-.11,2.22q12.51,3.93,29.17,7.64,14.44,3.26,21.5,7.61t7,14.13q0,8.69-9.58,12.86t-23,4.17q-15.91,0-25.84-7a22,22,0,0,1-9.3-13.65,7.93,7.93,0,0,0-7.76-6.14H8.76a8,8,0,0,0-7.87,9.27,54.67,54.67,0,0,0,5.44,16.21,56.87,56.87,0,0,0,17,19.52,81,81,0,0,0,26.57,12.47,129,129,0,0,0,34.7,4.34q39,0,58.92-15.73t19.88-39.58Q163.38,116.77,159.22,107.54Z"/><path class="cls-2" d="M176,39V14.37a9.36,9.36,0,0,1,9.41-9.31h28.17A9.36,9.36,0,0,1,223,14.37V39a9.36,9.36,0,0,1-9.41,9.31H185.44A9.36,9.36,0,0,1,176,39Z"/><rect class="cls-2" y="69.58" width="46.99" height="43.74" rx="9.41"/><rect class="cls-1" x="176.03" y="68.03" width="46.99" height="114.87" rx="7.29"/><path class="cls-1" d="M345.91,0h-6.14a132.23,132.23,0,0,0-14.1.73,49.4,49.4,0,0,0-13.56,3.46,52.25,52.25,0,0,0-13,7.83A57.91,57.91,0,0,0,287,26.22V13a7.91,7.91,0,0,0-7.91-7.91H250.81A7.92,7.92,0,0,0,242.89,13V175a7.92,7.92,0,0,0,7.92,7.91H282a7.91,7.91,0,0,0,7.91-7.91V90.36c0-28.67,14.34-43.37,43-43.37h49a47,47,0,0,0,47-47h-83Z"/><path class="cls-1" d="M408,72.54H344a30.84,30.84,0,0,0-30.84,30.84v53A30.84,30.84,0,0,0,344,187.17h64a30.85,30.85,0,0,0,30.85-30.84v-53A30.85,30.85,0,0,0,408,72.54Zm-8.52,69.65a9.36,9.36,0,0,1-9.41,9.31H361.94a9.36,9.36,0,0,1-9.41-9.31V117.52a9.36,9.36,0,0,1,9.41-9.31h28.17a9.36,9.36,0,0,1,9.41,9.31Z"/></g></g></svg>